<?xml version="1.0" encoding="UTF-8" standalone="no" ?>
<svg xmlns="http://www.w3.org/2000/svg" version="1.1" viewBox="0 0 1080 1080">
  <g transform="scale(10)">
    <g transform="matrix(1 0 0 1 50 50)">
      <g>
        <g transform="matrix(1 0 0 1 -49.72 -50)">
          <path style="fill: rgb(17,63,103);" 
                d="M 61.661 14.239 C 75.599 14.239 86.982 25.568 86.982 39.506 C 86.982 50.999 79.318 60.716 68.823 63.769 L 55.941 41.448 L 51.443 49.333 L 51.443 37.061 L 36.451 37.061 C 37.729 24.235 48.501 14.239 61.661 14.239 z" />
        </g>
        <g transform="matrix(1 0 0 1 -19.05 7.02)">
          <polygon style="fill: rgb(17,63,103);" 
                   points="-17.94,-17.41 17.94,-17.41 17.94,-3.31 11.49,7.86 6,17.41 -17.94,17.41" />
        </g>
        <g transform="matrix(1 0 0 1 5.97 16.16)">
          <polygon style="fill: rgb(17,63,103);" 
                   points="-0.03,-19.6 11.3,0 22.63,19.6 -22.63,19.6 -11.35,0" />
        </g>
      </g>
    </g>
  </g>
</svg>
