<svg xml:space="preserve" viewBox="481.68 486 116.64 105.84" version="1.1" xmlns:xlink="http://www.w3.org/1999/xlink" xmlns="http://www.w3.org/2000/svg" style="max-height: 500px" width="116.64" height="105.84">
<desc>Created with Fabric.js 5.2.4</desc>
<defs>
</defs>
<g id="e1422f08-d45a-4859-99e4-3d5f69bf6784" transform="matrix(1 0 0 1 540 540)">
<rect height="1080" width="1080" ry="0" rx="0" y="-540" x="-540" style="stroke: none; stroke-width: 1; stroke-dasharray: none; stroke-linecap: butt; stroke-dashoffset: 0; stroke-linejoin: miter; stroke-miterlimit: 4; fill: rgb(255,255,255); fill-rule: nonzero; opacity: 1; visibility: hidden;"/>
</g>
<g id="be7865ad-f5b1-4fd3-b8f6-40ba1f451fd8" transform="matrix(1 0 0 1 540 540)">
</g>
<g transform="matrix(1 0 0 1 540 540)">
<g style="">
		<g transform="matrix(1 0 0 1 11.72 -11)">
<path stroke-linecap="round" d="M 61.661 14.239 C 75.599 14.239 86.982 25.568 86.982 39.506 C 86.982 50.999 79.318 60.716 68.82300000000001 63.769000000000005 L 55.941 41.448 L 51.443000000000005 49.333 L 51.443000000000005 37.061 L 36.451 37.061 C 37.729 24.235 48.501 14.239 61.661 14.239 z" transform="translate(-61.72, -39)" style="stroke: none; stroke-width: 1; stroke-dasharray: none; stroke-linecap: butt; stroke-dashoffset: 0; stroke-linejoin: miter; stroke-miterlimit: 4; fill: rgb(255,255,255); fill-rule: nonzero; opacity: 1;"/>
</g>
		<g transform="matrix(1 0 0 1 -19.05 7.02)">
<polygon points="-17.94,-17.41 17.94,-17.41 17.94,-3.31 11.49,7.86 6,17.41 -17.94,17.41" style="stroke: none; stroke-width: 1; stroke-dasharray: none; stroke-linecap: butt; stroke-dashoffset: 0; stroke-linejoin: miter; stroke-miterlimit: 4; fill: rgb(255,255,255); fill-rule: nonzero; opacity: 1;"/>
</g>
		<g transform="matrix(1 0 0 1 5.97 16.16)">
<polygon points="-0.03,-19.6 11.3,0 22.63,19.6 -22.63,19.6 -11.35,0" style="stroke: none; stroke-width: 5; stroke-dasharray: none; stroke-linecap: butt; stroke-dashoffset: 0; stroke-linejoin: miter; stroke-miterlimit: 4; fill: rgb(255,255,255); fill-rule: nonzero; opacity: 1;"/>
</g>
</g>
</g>
<g transform="matrix(NaN NaN NaN NaN 0 0)">
<g style="">
</g>
</g>
</svg>